<svg width="23" height="22" viewBox="0 0 23 22" fill="none" xmlns="http://www.w3.org/2000/svg">
<path d="M8.92116 11.052L7.50716 12.466L11.7502 16.71L15.9932 12.467L14.5782 11.053L12.7502 12.88L12.7502 5.34301L10.7502 5.34301L10.7502 12.88L8.92116 11.052Z" fill="#F9D2E2"/>
<path fill-rule="evenodd" clip-rule="evenodd" d="M3.972 18.778C8.268 23.074 15.232 23.074 19.528 18.778C23.824 14.482 23.824 7.518 19.528 3.222C15.232 -1.074 8.268 -1.074 3.972 3.222C-0.323998 7.518 -0.323999 14.482 3.972 18.778ZM5.386 17.364C7.07384 19.0518 9.36304 20.0001 11.75 20.0001C14.137 20.0001 16.4262 19.0518 18.114 17.364C19.8018 15.6762 20.7501 13.387 20.7501 11C20.7501 8.61304 19.8018 6.32384 18.114 4.636C16.4262 2.94816 14.137 1.99994 11.75 1.99994C9.36304 1.99994 7.07384 2.94816 5.386 4.636C3.69816 6.32384 2.74995 8.61304 2.74995 11C2.74995 13.387 3.69816 15.6762 5.386 17.364Z" fill="#F9D2E2"/>
</svg>
