<svg width="179" height="176" viewBox="0 0 179 176" fill="none" xmlns="http://www.w3.org/2000/svg">
<g opacity="0.25">
<circle cx="4.5" cy="4.5" r="4.5" fill="#F6BCD3"/>
<circle cx="21.5" cy="4.5" r="4.5" fill="#F6BCD3"/>
<circle cx="38.5" cy="4.5" r="4.5" fill="#F6BCD3"/>
<circle cx="55.5" cy="4.5" r="4.5" fill="#F6BCD3"/>
<circle cx="72.5" cy="4.5" r="4.5" fill="#F6BCD3"/>
<circle cx="89.5" cy="4.5" r="4.5" fill="#F6BCD3"/>
<circle cx="106.5" cy="4.5" r="4.5" fill="#F6BCD3"/>
<circle cx="123.5" cy="4.5" r="4.5" fill="#F6BCD3"/>
<circle cx="140.5" cy="4.5" r="4.5" fill="#F6BCD3"/>
<circle cx="157.5" cy="4.5" r="4.5" fill="#F6BCD3"/>
<circle cx="174.5" cy="4.5" r="4.5" fill="#F6BCD3"/>
<ellipse cx="4.5" cy="21" rx="4.5" ry="4" fill="#F6BCD3"/>
<ellipse cx="21.5" cy="21" rx="4.5" ry="4" fill="#F6BCD3"/>
<ellipse cx="38.5" cy="21" rx="4.5" ry="4" fill="#F6BCD3"/>
<ellipse cx="55.5" cy="21" rx="4.5" ry="4" fill="#F6BCD3"/>
<ellipse cx="72.5" cy="21" rx="4.5" ry="4" fill="#F6BCD3"/>
<ellipse cx="89.5" cy="21" rx="4.5" ry="4" fill="#F6BCD3"/>
<ellipse cx="106.5" cy="21" rx="4.5" ry="4" fill="#F6BCD3"/>
<ellipse cx="123.5" cy="21" rx="4.5" ry="4" fill="#F6BCD3"/>
<ellipse cx="140.5" cy="21" rx="4.5" ry="4" fill="#F6BCD3"/>
<ellipse cx="157.5" cy="21" rx="4.5" ry="4" fill="#F6BCD3"/>
<ellipse cx="174.5" cy="21" rx="4.5" ry="4" fill="#F6BCD3"/>
<circle cx="4.5" cy="37.5" r="4.5" fill="#F6BCD3"/>
<circle cx="21.5" cy="37.5" r="4.5" fill="#F6BCD3"/>
<circle cx="38.5" cy="37.5" r="4.5" fill="#F6BCD3"/>
<circle cx="55.5" cy="37.5" r="4.5" fill="#F6BCD3"/>
<circle cx="72.5" cy="37.5" r="4.5" fill="#F6BCD3"/>
<circle cx="89.5" cy="37.5" r="4.5" fill="#F6BCD3"/>
<circle cx="106.5" cy="37.5" r="4.5" fill="#F6BCD3"/>
<circle cx="123.5" cy="37.5" r="4.5" fill="#F6BCD3"/>
<circle cx="140.5" cy="37.5" r="4.5" fill="#F6BCD3"/>
<circle cx="157.5" cy="37.5" r="4.5" fill="#F6BCD3"/>
<circle cx="174.5" cy="37.5" r="4.5" fill="#F6BCD3"/>
<circle cx="4.5" cy="54.5" r="4.5" fill="#F6BCD3"/>
<circle cx="21.5" cy="54.5" r="4.5" fill="#F6BCD3"/>
<circle cx="38.5" cy="54.5" r="4.5" fill="#F6BCD3"/>
<circle cx="55.5" cy="54.5" r="4.5" fill="#F6BCD3"/>
<circle cx="72.5" cy="54.5" r="4.5" fill="#F6BCD3"/>
<circle cx="89.5" cy="54.5" r="4.5" fill="#F6BCD3"/>
<circle cx="106.5" cy="54.5" r="4.5" fill="#F6BCD3"/>
<circle cx="123.5" cy="54.5" r="4.5" fill="#F6BCD3"/>
<circle cx="140.5" cy="54.5" r="4.5" fill="#F6BCD3"/>
<circle cx="157.5" cy="54.5" r="4.5" fill="#F6BCD3"/>
<circle cx="174.5" cy="54.5" r="4.5" fill="#F6BCD3"/>
<circle cx="4.5" cy="71.5" r="4.5" fill="#F6BCD3"/>
<circle cx="21.5" cy="71.5" r="4.5" fill="#F6BCD3"/>
<circle cx="38.5" cy="71.5" r="4.5" fill="#F6BCD3"/>
<circle cx="55.5" cy="71.5" r="4.5" fill="#F6BCD3"/>
<circle cx="72.5" cy="71.5" r="4.5" fill="#F6BCD3"/>
<circle cx="89.5" cy="71.5" r="4.5" fill="#F6BCD3"/>
<circle cx="106.5" cy="71.5" r="4.5" fill="#F6BCD3"/>
<circle cx="123.5" cy="71.5" r="4.5" fill="#F6BCD3"/>
<circle cx="140.5" cy="71.5" r="4.5" fill="#F6BCD3"/>
<circle cx="157.5" cy="71.5" r="4.5" fill="#F6BCD3"/>
<circle cx="174.5" cy="71.5" r="4.5" fill="#F6BCD3"/>
<ellipse cx="4.5" cy="88" rx="4.5" ry="4" fill="#F6BCD3"/>
<ellipse cx="21.5" cy="88" rx="4.5" ry="4" fill="#F6BCD3"/>
<ellipse cx="38.5" cy="88" rx="4.5" ry="4" fill="#F6BCD3"/>
<ellipse cx="55.5" cy="88" rx="4.5" ry="4" fill="#F6BCD3"/>
<ellipse cx="72.5" cy="88" rx="4.5" ry="4" fill="#F6BCD3"/>
<ellipse cx="89.5" cy="88" rx="4.5" ry="4" fill="#F6BCD3"/>
<ellipse cx="106.5" cy="88" rx="4.5" ry="4" fill="#F6BCD3"/>
<ellipse cx="123.5" cy="88" rx="4.5" ry="4" fill="#F6BCD3"/>
<ellipse cx="140.5" cy="88" rx="4.5" ry="4" fill="#F6BCD3"/>
<ellipse cx="157.5" cy="88" rx="4.5" ry="4" fill="#F6BCD3"/>
<ellipse cx="174.5" cy="88" rx="4.5" ry="4" fill="#F6BCD3"/>
<circle cx="4.5" cy="104.5" r="4.5" fill="#F6BCD3"/>
<circle cx="21.5" cy="104.5" r="4.5" fill="#F6BCD3"/>
<circle cx="38.5" cy="104.5" r="4.5" fill="#F6BCD3"/>
<circle cx="55.5" cy="104.5" r="4.5" fill="#F6BCD3"/>
<circle cx="72.5" cy="104.5" r="4.5" fill="#F6BCD3"/>
<circle cx="89.5" cy="104.5" r="4.5" fill="#F6BCD3"/>
<circle cx="106.5" cy="104.5" r="4.5" fill="#F6BCD3"/>
<circle cx="123.5" cy="104.5" r="4.5" fill="#F6BCD3"/>
<circle cx="140.5" cy="104.5" r="4.5" fill="#F6BCD3"/>
<circle cx="157.5" cy="104.5" r="4.5" fill="#F6BCD3"/>
<circle cx="174.5" cy="104.5" r="4.5" fill="#F6BCD3"/>
<circle cx="4.5" cy="121.5" r="4.5" fill="#F6BCD3"/>
<circle cx="21.5" cy="121.5" r="4.5" fill="#F6BCD3"/>
<circle cx="38.5" cy="121.5" r="4.5" fill="#F6BCD3"/>
<circle cx="55.5" cy="121.5" r="4.5" fill="#F6BCD3"/>
<circle cx="72.5" cy="121.5" r="4.5" fill="#F6BCD3"/>
<circle cx="89.5" cy="121.5" r="4.5" fill="#F6BCD3"/>
<circle cx="106.5" cy="121.5" r="4.5" fill="#F6BCD3"/>
<circle cx="123.5" cy="121.5" r="4.5" fill="#F6BCD3"/>
<circle cx="140.5" cy="121.5" r="4.5" fill="#F6BCD3"/>
<circle cx="157.5" cy="121.5" r="4.5" fill="#F6BCD3"/>
<circle cx="174.5" cy="121.5" r="4.5" fill="#F6BCD3"/>
<circle cx="4.5" cy="138.5" r="4.5" fill="#F6BCD3"/>
<circle cx="21.5" cy="138.5" r="4.5" fill="#F6BCD3"/>
<circle cx="38.5" cy="138.5" r="4.5" fill="#F6BCD3"/>
<circle cx="55.5" cy="138.5" r="4.5" fill="#F6BCD3"/>
<circle cx="72.5" cy="138.5" r="4.5" fill="#F6BCD3"/>
<circle cx="89.5" cy="138.5" r="4.5" fill="#F6BCD3"/>
<circle cx="106.5" cy="138.5" r="4.5" fill="#F6BCD3"/>
<circle cx="123.5" cy="138.5" r="4.5" fill="#F6BCD3"/>
<circle cx="140.5" cy="138.5" r="4.5" fill="#F6BCD3"/>
<circle cx="157.5" cy="138.5" r="4.5" fill="#F6BCD3"/>
<circle cx="174.5" cy="138.5" r="4.5" fill="#F6BCD3"/>
<ellipse cx="4.5" cy="155" rx="4.5" ry="4" fill="#F6BCD3"/>
<ellipse cx="21.5" cy="155" rx="4.5" ry="4" fill="#F6BCD3"/>
<ellipse cx="38.5" cy="155" rx="4.5" ry="4" fill="#F6BCD3"/>
<ellipse cx="55.5" cy="155" rx="4.5" ry="4" fill="#F6BCD3"/>
<ellipse cx="72.5" cy="155" rx="4.5" ry="4" fill="#F6BCD3"/>
<ellipse cx="89.5" cy="155" rx="4.5" ry="4" fill="#F6BCD3"/>
<ellipse cx="106.5" cy="155" rx="4.5" ry="4" fill="#F6BCD3"/>
<ellipse cx="123.5" cy="155" rx="4.5" ry="4" fill="#F6BCD3"/>
<ellipse cx="140.5" cy="155" rx="4.5" ry="4" fill="#F6BCD3"/>
<ellipse cx="157.5" cy="155" rx="4.5" ry="4" fill="#F6BCD3"/>
<ellipse cx="174.5" cy="155" rx="4.5" ry="4" fill="#F6BCD3"/>
<circle cx="4.5" cy="171.5" r="4.5" fill="#F6BCD3"/>
<circle cx="21.5" cy="171.5" r="4.5" fill="#F6BCD3"/>
<circle cx="38.5" cy="171.5" r="4.5" fill="#F6BCD3"/>
<circle cx="55.5" cy="171.5" r="4.5" fill="#F6BCD3"/>
<circle cx="72.5" cy="171.5" r="4.5" fill="#F6BCD3"/>
<circle cx="89.5" cy="171.5" r="4.5" fill="#F6BCD3"/>
<circle cx="106.5" cy="171.5" r="4.5" fill="#F6BCD3"/>
<circle cx="123.5" cy="171.5" r="4.5" fill="#F6BCD3"/>
<circle cx="140.5" cy="171.5" r="4.5" fill="#F6BCD3"/>
<circle cx="157.5" cy="171.5" r="4.5" fill="#F6BCD3"/>
<circle cx="174.5" cy="171.5" r="4.5" fill="#F6BCD3"/>
</g>
</svg>
