<svg 
    width="28" 
    height="28" 
    viewBox="0 0 28 28" 
    fill="none" 
    xmlns="http://www.w3.org/2000/svg"
>
    <path 
        d="M5.94253 16.0477C2.64432 20.4212 1.16198 24.2017 2.47756 25.5175C4.33049 27.3707 11.001 23.6643 17.301 17.2893C23.6009 10.9144 27.3809 4.31702 25.528 2.46383C24.3421 1.25926 21.118 2.46383 17.2454 5.07682" 
        stroke="hsl(204deg 36% 35%)" 
        stroke-width="3" 
        stroke-linecap="round" 
        stroke-linejoin="round"
    />

    <path 
        d="M23.3966 10.0989C24.0425 11.511 24.3232 13.0627 24.213 14.6116C24.1027 16.1605 23.605 17.6568 22.7656 18.9631C21.9263 20.2694 20.7721 21.3438 19.4092 22.0875C18.0463 22.8312 16.5184 23.2205 14.9658 23.2195C13.7255 23.22 12.4974 22.9743 11.3526 22.4968M7.55411 19.5131C6.21603 17.7288 5.5664 15.5216 5.72449 13.2967C5.88258 11.0719 6.83779 8.97873 8.41473 7.40156C9.99168 5.8244 12.0845 4.86906 14.3091 4.71095C16.5336 4.55283 18.7405 5.20255 20.5246 6.54082" 
        stroke="hsl(204deg 36% 35%)" 
        stroke-width="3" 
        stroke-linecap="round" 
        stroke-linejoin="round"
    />
</svg>
